<svg width="50" height="50" viewBox="0 0 50 50" fill="none" xmlns="http://www.w3.org/2000/svg">
<path d="M14.5201 14.5201C15.1303 13.91 16.1197 13.91 16.7299 14.5201L25 22.7903L33.2701 14.5201C33.8803 13.91 34.8697 13.91 35.4799 14.5201C36.09 15.1303 36.09 16.1197 35.4799 16.7299L27.2097 25L35.4799 33.2701C36.09 33.8803 36.09 34.8697 35.4799 35.4799C34.8697 36.09 33.8803 36.09 33.2701 35.4799L25 27.2097L16.7299 35.4799C16.1197 36.09 15.1303 36.09 14.5201 35.4799C13.91 34.8697 13.91 33.8803 14.5201 33.2701L22.7903 25L14.5201 16.7299C13.91 16.1197 13.91 15.1303 14.5201 14.5201Z" fill="#CCCCCC"/>
</svg>
